<?xml version="1.0" encoding="UTF-8"?>
<svg id="Layer_1" xmlns="http://www.w3.org/2000/svg" version="1.1" viewBox="0 0 195.57 96.74">
  <!-- Generator: Adobe Illustrator 29.7.1, SVG Export Plug-In . SVG Version: 2.1.1 Build 8)  -->
  <defs>
    <style>
      .st0 {
        fill: #141414;
      }

      .st1 {
        fill: #fff;
      }

      .st2 {
        fill: none;
      }

      .st3 {
        fill: #dd1d4b;
      }

      .st4 {
        isolation: isolate;
      }
    </style>
  </defs>
  <rect id="svgEditorBackground" class="st2" width="195.57" height="96.74"/>
  <g>
    <g>
      <g id="A">
        <path class="st0" d="M23.69,0c13.1,0,23.7,10.61,23.7,23.68s-10.6,23.68-23.7,23.68S0,36.76,0,23.68,10.61,0,23.69,0Z"/>
      </g>
      <g class="st4">
        <path class="st3" d="M32.45,38.83l-2.78-7.66h-12.13l-2.65,7.66h-5.48l11.47-30.31h5.58l11.51,30.31h-5.53ZM23.66,13.08h-.13c-.11.85-.24,1.58-.45,2.17l-4.14,11.68h9.29l-4.16-11.68c-.13-.37-.28-1.09-.41-2.17Z"/>
      </g>
    </g>
    <g>
      <g id="B">
        <path class="st0" d="M73.08,0c13.1,0,23.7,10.61,23.7,23.69s-10.61,23.68-23.7,23.68-23.69-10.61-23.69-23.68S60,0,73.08,0Z"/>
      </g>
      <g class="st4">
        <path class="st3" d="M83.29,30.01c0,2.63-.99,4.78-2.93,6.39-1.96,1.63-4.47,2.44-7.57,2.44h-9.91V8.53h9.57c2.9,0,5.19.65,6.87,1.88,1.68,1.27,2.52,2.95,2.52,5.09,0,1.65-.5,3.1-1.5,4.35-1.01,1.28-2.32,2.15-3.96,2.67v.09c2.16.27,3.84,1.08,5.07,2.37,1.2,1.33,1.82,2.98,1.82,5.03ZM76.52,16.47c0-1.2-.45-2.14-1.33-2.8-.91-.65-2.22-.97-3.98-.97h-3.28v8.38h3.23c1.69,0,3.02-.4,3.96-1.2.93-.8,1.4-1.92,1.4-3.41ZM77.95,29.87c0-1.45-.51-2.59-1.56-3.41-1.05-.81-2.6-1.21-4.67-1.21h-3.79v9.41h4.24c1.8,0,3.21-.44,4.24-1.31,1.04-.85,1.55-2.03,1.55-3.49Z"/>
      </g>
    </g>
    <g>
      <g id="Y">
        <path class="st0" d="M171.87,0c13.1,0,23.71,10.61,23.71,23.69s-10.6,23.68-23.71,23.68-23.69-10.6-23.69-23.68S158.79,0,171.87,0Z"/>
      </g>
      <g class="st4">
        <path class="st3" d="M174.27,27.85v10.99h-5v-10.86l-9.85-19.44h5.72l6.1,12.65c.21.41.34.78.44,1.12.1.34.18.61.26.83h.04c.15-.64.37-1.27.7-1.9l6.32-12.69h5.32l-10.05,19.31Z"/>
      </g>
    </g>
    <g>
      <g id="X">
        <path class="st0" d="M122.47,0c13.1,0,23.71,10.61,23.71,23.69s-10.6,23.68-23.71,23.68-23.68-10.61-23.68-23.68S109.39,0,122.47,0Z"/>
      </g>
      <g class="st4">
        <path class="st3" d="M129.59,38.83l-6.41-11.02c-.13-.29-.24-.53-.31-.76-.05-.26-.12-.5-.21-.76h-.09c-.12.27-.19.52-.27.77-.08.22-.19.46-.34.75l-6.52,11.02h-6.12l10.14-15.19-9.26-15.11h6.19l5.4,9.95c.52.89.86,1.64,1.05,2.27h.07c.31-.79.54-1.31.66-1.56.11-.24,2.21-3.8,6.27-10.66h5.67l-9.46,15.02,9.58,15.28h-6.04,0Z"/>
      </g>
    </g>
  </g>
  <g>
    <g>
      <g id="A1" data-name="A">
        <path class="st1" d="M23.69,49.38c13.1,0,23.7,10.61,23.7,23.68s-10.6,23.68-23.7,23.68S0,86.14,0,73.06s10.61-23.68,23.69-23.68Z"/>
      </g>
      <g class="st4">
        <path class="st3" d="M32.45,88.21l-2.78-7.66h-12.13l-2.65,7.66h-5.48l11.47-30.31h5.58l11.51,30.31h-5.53ZM23.66,62.46h-.13c-.11.85-.24,1.58-.45,2.17l-4.14,11.68h9.29l-4.16-11.68c-.13-.37-.28-1.09-.41-2.17Z"/>
      </g>
    </g>
    <g>
      <g id="B1" data-name="B">
        <path class="st1" d="M73.08,49.37c13.1,0,23.7,10.61,23.7,23.69s-10.61,23.68-23.7,23.68-23.69-10.61-23.69-23.68,10.61-23.69,23.69-23.69Z"/>
      </g>
      <g class="st4">
        <path class="st3" d="M83.29,79.38c0,2.63-.99,4.78-2.93,6.39-1.96,1.63-4.47,2.44-7.57,2.44h-9.91v-30.3h9.57c2.9,0,5.19.65,6.87,1.88,1.68,1.27,2.52,2.95,2.52,5.09,0,1.65-.5,3.1-1.5,4.35-1.01,1.28-2.32,2.15-3.96,2.67v.09c2.16.27,3.84,1.07,5.07,2.37,1.2,1.33,1.82,2.98,1.82,5.03ZM76.52,65.84c0-1.21-.45-2.14-1.33-2.79-.91-.65-2.22-.97-3.98-.97h-3.28v8.38h3.23c1.69,0,3.02-.4,3.96-1.2.93-.8,1.4-1.92,1.4-3.41ZM77.95,79.25c0-1.45-.51-2.58-1.56-3.41-1.05-.81-2.6-1.21-4.67-1.21h-3.79v9.41h4.24c1.8,0,3.21-.44,4.24-1.31,1.04-.86,1.55-2.03,1.55-3.49Z"/>
      </g>
    </g>
    <g>
      <g id="Y1" data-name="Y">
        <path class="st1" d="M171.87,49.37c13.1,0,23.71,10.61,23.71,23.69s-10.6,23.68-23.71,23.68-23.69-10.6-23.69-23.68,10.61-23.69,23.69-23.69Z"/>
      </g>
      <g class="st4">
        <path class="st3" d="M174.27,77.22v10.99h-5v-10.86l-9.85-19.44h5.72l6.1,12.65c.21.41.34.78.44,1.12.1.34.18.61.26.82h.04c.15-.64.37-1.28.7-1.9l6.32-12.69h5.32l-10.05,19.31Z"/>
      </g>
    </g>
    <g>
      <g id="X1" data-name="X">
        <path class="st1" d="M122.47,49.37c13.1,0,23.71,10.61,23.71,23.69s-10.6,23.68-23.71,23.68-23.68-10.61-23.68-23.68,10.61-23.69,23.68-23.69Z"/>
      </g>
      <g class="st4">
        <path class="st3" d="M129.59,88.21l-6.41-11.02c-.13-.29-.24-.53-.31-.76-.05-.26-.12-.5-.21-.76h-.09c-.12.28-.19.52-.27.78-.08.22-.19.46-.34.75l-6.52,11.02h-6.12l10.14-15.19-9.26-15.11h6.19l5.4,9.95c.52.89.86,1.64,1.05,2.27h.07c.31-.79.54-1.31.66-1.56.11-.24,2.21-3.8,6.27-10.66h5.67l-9.46,15.02,9.58,15.28h-6.04,0Z"/>
      </g>
    </g>
  </g>
</svg>