<?xml version="1.0" encoding="UTF-8"?>
<svg id="Layer_1" xmlns="http://www.w3.org/2000/svg" version="1.1" viewBox="0 0 750 630.46">
  <!-- Generator: Adobe Illustrator 29.7.1, SVG Export Plug-In . SVG Version: 2.1.1 Build 8)  -->
  <defs>
    <style>
      .st0 {
        fill: #8e1638;
      }

      .st1 {
        fill: #fff;
      }

      .st2 {
        fill: none;
      }
    </style>
  </defs>
  <rect id="svgEditorBackground" class="st2" width="750" height="630.46"/>
  <g>
    <path class="st0" d="M664.37,213.96c-6.72-16.68-20.54-20.88-21.82-22-11.7-10.34-2.47-21.21-19.95-30.7-18.28-9.91-71.98-37-114.22-31.38-9.23,1.24-27.84,17.61-41.21,17.61h-184.33c-13.38,0-31.99-16.37-41.21-17.61-42.25-5.62-95.94,21.46-114.22,31.38-17.47,9.48-8.24,20.36-19.94,30.7-1.28,1.12-15.1,5.32-21.82,22C22.89,369.98-1.74,469.11.1,529.13c2.89,94.42,76.58,101.33,76.58,101.33,37.03-8.62,111.55-129.14,168.54-129.14h259.59c56.98,0,131.5,120.52,168.54,129.14,0,0,73.68-6.91,76.56-101.33,1.86-60.02-22.81-159.15-85.54-315.17h0Z"/>
    <path class="st0" d="M548.36,114.95l50.44,6.85c-12.07-116.82-42.97-111.03-49.71-116.33-.4-.32-.8-.62-1.21-.9-6.42-4.48-13.57-4.87-25.83-4.43-10.82.4-12.06,11.44-12.18,15.19v1.23s2.9,40.72,0,93.09c9.79,2.26,37.72,5.21,38.5,5.29Z"/>
    <path class="st0" d="M201.68,114.95s28.61-3.01,38.54-5.3c-2.9-52.38,0-93.09,0-93.09v-1.23c-.12-3.75-1.36-14.79-12.19-15.19-12.25-.45-19.4-.05-25.82,4.43-.41.28-.81.58-1.21.9-6.76,5.3-37.65-.49-49.71,116.33l50.4-6.85h0s0,0,0,0Z"/>
  </g>
  <g>
    <path class="st1" d="M184.22,353.41v-44.81h12.94c16.52,0,24.78,7.28,24.78,21.84,0,6.92-2.29,12.47-6.88,16.67s-10.73,6.3-18.44,6.3h-12.41ZM191.62,314.91v32.22h5.94c5.23,0,9.3-1.44,12.2-4.31s4.36-6.94,4.36-12.19c0-10.48-5.43-15.72-16.28-15.72h-6.22Z"/>
    <path class="st1" d="M232.97,314.69c-1.19,0-2.2-.39-3.05-1.16s-1.27-1.75-1.27-2.94.42-2.18,1.27-2.97c.84-.79,1.86-1.19,3.05-1.19s2.27.4,3.12,1.19,1.28,1.78,1.28,2.97c0,1.12-.43,2.09-1.28,2.89-.85.8-1.9,1.2-3.12,1.2ZM236.56,353.41h-7.25v-32h7.25v32Z"/>
    <path class="st1" d="M244.03,352.41v-6.72c2.71,2.06,5.7,3.09,8.97,3.09,4.38,0,6.56-1.29,6.56-3.88,0-.73-.19-1.35-.56-1.86s-.88-.96-1.52-1.36-1.39-.75-2.25-1.06c-.87-.31-1.83-.67-2.89-1.06-1.31-.52-2.49-1.07-3.55-1.66s-1.93-1.24-2.62-1.98-1.22-1.58-1.58-2.52-.53-2.03-.53-3.28c0-1.54.36-2.9,1.09-4.08.73-1.18,1.71-2.17,2.94-2.97,1.23-.8,2.62-1.41,4.19-1.81s3.18-.61,4.84-.61c2.96,0,5.6.45,7.94,1.34v6.34c-2.25-1.54-4.83-2.31-7.75-2.31-.92,0-1.74.09-2.48.28-.74.19-1.37.45-1.89.78-.52.33-.93.73-1.22,1.2-.29.47-.44.98-.44,1.55,0,.69.15,1.27.44,1.75s.72.9,1.3,1.27,1.26.7,2.06,1c.8.3,1.72.63,2.77.98,1.38.56,2.61,1.14,3.7,1.72s2.03,1.24,2.8,1.98c.77.74,1.36,1.59,1.78,2.56s.62,2.12.62,3.45c0,1.62-.38,3.04-1.12,4.25s-1.75,2.21-3,3-2.69,1.38-4.33,1.77c-1.64.39-3.36.58-5.17.58-3.5,0-6.53-.58-9.1-1.75Z"/>
    <path class="st1" d="M296.53,351.94c-2.56,1.48-5.59,2.22-9.09,2.22-4.75,0-8.58-1.48-11.5-4.45s-4.38-6.82-4.38-11.55c0-5.27,1.57-9.51,4.7-12.7,3.14-3.2,7.33-4.8,12.58-4.8,2.92,0,5.49.51,7.72,1.53v6.75c-2.23-1.67-4.6-2.5-7.12-2.5-3.06,0-5.57,1.04-7.53,3.11-1.96,2.07-2.94,4.79-2.94,8.14s.92,5.93,2.77,7.84,4.32,2.88,7.42,2.88c2.6,0,5.06-.93,7.38-2.78v6.31Z"/>
    <path class="st1" d="M317.91,354.16c-4.94,0-8.88-1.49-11.83-4.48s-4.42-6.95-4.42-11.89c0-5.38,1.54-9.57,4.61-12.59s7.21-4.53,12.42-4.53,8.9,1.47,11.69,4.41c2.79,2.94,4.19,7.01,4.19,12.22s-1.51,9.19-4.52,12.27-7.06,4.61-12.14,4.61ZM318.25,326.44c-2.83,0-5.07.99-6.72,2.97s-2.47,4.71-2.47,8.19.83,5.99,2.5,7.92,3.9,2.89,6.69,2.89,5.05-.95,6.58-2.84,2.3-4.59,2.3-8.09-.77-6.24-2.3-8.16c-1.53-1.92-3.72-2.88-6.58-2.88Z"/>
    <path class="st1" d="M370.44,353.41h-7.25v-18.03c0-5.98-2.11-8.97-6.34-8.97-2.21,0-4.03.83-5.47,2.48s-2.16,3.74-2.16,6.27v18.25h-7.28v-32h7.28v5.31h.12c2.4-4.04,5.85-6.06,10.38-6.06,3.48,0,6.14,1.13,7.97,3.39,1.83,2.26,2.75,5.53,2.75,9.8v19.56Z"/>
    <path class="st1" d="M407.78,353.41h-7.25v-18.03c0-5.98-2.11-8.97-6.34-8.97-2.21,0-4.03.83-5.47,2.48s-2.16,3.74-2.16,6.27v18.25h-7.28v-32h7.28v5.31h.12c2.4-4.04,5.85-6.06,10.38-6.06,3.48,0,6.14,1.13,7.97,3.39,1.83,2.26,2.75,5.53,2.75,9.8v19.56Z"/>
    <path class="st1" d="M443.72,339.38h-21.81c.08,2.96.99,5.24,2.73,6.84s4.13,2.41,7.17,2.41c3.42,0,6.55-1.02,9.41-3.06v5.84c-2.92,1.83-6.77,2.75-11.56,2.75s-8.4-1.45-11.08-4.36-4.02-6.99-4.02-12.27c0-4.98,1.47-9.04,4.42-12.17,2.95-3.14,6.61-4.7,10.98-4.7s7.76,1.41,10.16,4.22,3.59,6.72,3.59,11.72v2.78h0ZM436.72,334.26c-.02-2.6-.64-4.63-1.84-6.08s-2.88-2.17-5-2.17-3.85.76-5.3,2.28c-1.45,1.52-2.34,3.51-2.67,5.97h14.81Z"/>
    <path class="st1" d="M473.53,351.94c-2.56,1.48-5.59,2.22-9.09,2.22-4.75,0-8.58-1.48-11.5-4.45s-4.38-6.82-4.38-11.55c0-5.27,1.57-9.51,4.7-12.7,3.14-3.2,7.33-4.8,12.58-4.8,2.92,0,5.49.51,7.72,1.53v6.75c-2.23-1.67-4.6-2.5-7.12-2.5-3.06,0-5.57,1.04-7.53,3.11-1.96,2.07-2.94,4.79-2.94,8.14s.92,5.93,2.77,7.84,4.32,2.88,7.42,2.88c2.6,0,5.06-.93,7.38-2.78v6.31Z"/>
    <path class="st1" d="M497.59,353.07c-1.42.71-3.28,1.06-5.59,1.06-6.21,0-9.31-2.98-9.31-8.94v-18.09h-5.34v-5.69h5.34v-7.41l7.25-2.06v9.47h7.66v5.69h-7.66v16c0,1.9.34,3.25,1.03,4.06s1.83,1.22,3.44,1.22c1.23,0,2.29-.35,3.19-1.06v5.75Z"/>
    <path class="st1" d="M530.56,339.38h-21.81c.08,2.96.99,5.24,2.73,6.84s4.13,2.41,7.17,2.41c3.42,0,6.55-1.02,9.41-3.06v5.84c-2.92,1.83-6.77,2.75-11.56,2.75s-8.4-1.45-11.08-4.36-4.02-6.99-4.02-12.27c0-4.98,1.47-9.04,4.42-12.17,2.95-3.14,6.61-4.7,10.98-4.7s7.76,1.41,10.16,4.22,3.59,6.72,3.59,11.72v2.78h0ZM523.56,334.26c-.02-2.6-.64-4.63-1.84-6.08s-2.88-2.17-5-2.17-3.85.76-5.3,2.28c-1.45,1.52-2.34,3.51-2.67,5.97h14.81Z"/>
    <path class="st1" d="M566.56,353.41h-7.25v-5.44h-.12c-2.33,4.12-5.93,6.19-10.78,6.19-3.94,0-7.09-1.43-9.45-4.3-2.36-2.86-3.55-6.77-3.55-11.7,0-5.29,1.31-9.53,3.92-12.72,2.61-3.19,6.1-4.78,10.45-4.78s7.45,1.73,9.41,5.19h.12v-19.81h7.25v47.38ZM559.41,338.79v-4.19c0-2.27-.74-4.2-2.22-5.78s-3.36-2.38-5.66-2.38c-2.71,0-4.84,1.01-6.39,3.03-1.55,2.02-2.33,4.82-2.33,8.41,0,3.25.74,5.82,2.23,7.7,1.49,1.89,3.49,2.83,6.02,2.83s4.49-.91,6.03-2.73c1.54-1.82,2.31-4.12,2.31-6.89Z"/>
  </g>
</svg>