<?xml version="1.0" encoding="UTF-8"?>
<svg id="Layer_1" xmlns="http://www.w3.org/2000/svg" version="1.1" viewBox="0 0 47.28 47.37">
  <!-- Generator: Adobe Illustrator 29.7.1, SVG Export Plug-In . SVG Version: 2.1.1 Build 8)  -->
  <defs>
    <style>
      .st0 {
        fill: #141414;
      }

      .st1 {
        fill: #fff;
      }

      .st2 {
        fill: #dd1d4b;
      }

      .st3 {
        isolation: isolate;
      }
    </style>
  </defs>
  <g>
    <g>
      <g id="A">
        <path class="st0" d="M23.63,0c13.1,0,23.7,10.61,23.7,23.68s-10.6,23.68-23.7,23.68S-.06,36.76-.06,23.68,10.55,0,23.63,0Z"/>
      </g>
      <g class="st3">
        <path class="st2" d="M32.39,38.83l-2.78-7.66h-12.13l-2.65,7.66h-5.48l11.47-30.31h5.58l11.51,30.31h-5.53,0ZM23.6,13.08h-.13c-.11.85-.24,1.58-.45,2.17l-4.14,11.68h9.29l-4.16-11.68c-.13-.37-.28-1.09-.41-2.17Z"/>
      </g>
    </g>
    <g>
      <g id="B">
        <path class="st0" d="M90.91,0c13.1,0,23.7,10.61,23.7,23.69s-10.61,23.68-23.7,23.68-23.69-10.61-23.69-23.68S77.83,0,90.91,0Z"/>
      </g>
      <g class="st3">
        <path class="st2" d="M101.12,30.01c0,2.63-.99,4.78-2.93,6.39-1.96,1.63-4.47,2.44-7.57,2.44h-9.91V8.53h9.57c2.9,0,5.19.65,6.87,1.88,1.68,1.27,2.52,2.95,2.52,5.09,0,1.65-.5,3.1-1.5,4.35-1.01,1.28-2.32,2.15-3.96,2.67v.09c2.16.27,3.84,1.08,5.07,2.37,1.2,1.33,1.82,2.98,1.82,5.03h.02ZM94.35,16.47c0-1.2-.45-2.14-1.33-2.8-.91-.65-2.22-.97-3.98-.97h-3.28v8.38h3.23c1.69,0,3.02-.4,3.96-1.2.93-.8,1.4-1.92,1.4-3.41ZM95.78,29.87c0-1.45-.51-2.59-1.56-3.41-1.05-.81-2.6-1.21-4.67-1.21h-3.79v9.41h4.24c1.8,0,3.21-.44,4.24-1.31,1.04-.85,1.55-2.03,1.55-3.49h-.01Z"/>
      </g>
    </g>
    <g>
      <g id="Y">
        <path class="st0" d="M225.47,0c13.1,0,23.71,10.61,23.71,23.69s-10.6,23.68-23.71,23.68-23.69-10.6-23.69-23.68S212.39,0,225.47,0Z"/>
      </g>
      <g class="st3">
        <path class="st2" d="M227.87,27.85v10.99h-5v-10.86l-9.85-19.44h5.72l6.1,12.65c.21.41.34.78.44,1.12s.18.61.26.83h.04c.15-.64.37-1.27.7-1.9l6.32-12.69h5.32l-10.05,19.31h0Z"/>
      </g>
    </g>
    <g>
      <g id="X">
        <path class="st0" d="M158.18,0c13.1,0,23.71,10.61,23.71,23.69s-10.6,23.68-23.71,23.68-23.68-10.61-23.68-23.68S145.1,0,158.18,0Z"/>
      </g>
      <g class="st3">
        <path class="st2" d="M165.3,38.83l-6.41-11.02c-.13-.29-.24-.53-.31-.76-.05-.26-.12-.5-.21-.76h-.09c-.12.27-.19.52-.27.77-.08.22-.19.46-.34.75l-6.52,11.02h-6.12l10.14-15.19-9.26-15.11h6.19l5.4,9.95c.52.89.86,1.64,1.05,2.27h.07c.31-.79.54-1.31.66-1.56.11-.24,2.21-3.8,6.27-10.66h5.67l-9.46,15.02,9.58,15.28h-6.04Z"/>
      </g>
    </g>
  </g>
  <g>
    <g>
      <g id="A1" data-name="A">
        <path class="st1" d="M23.63,67.37c13.1,0,23.7,10.61,23.7,23.68s-10.6,23.68-23.7,23.68S-.06,104.13-.06,91.05s10.61-23.68,23.69-23.68Z"/>
      </g>
      <g class="st3">
        <path class="st2" d="M32.39,106.2l-2.78-7.66h-12.13l-2.65,7.66h-5.48l11.47-30.31h5.58l11.51,30.31h-5.53,0ZM23.6,80.45h-.13c-.11.85-.24,1.58-.45,2.17l-4.14,11.68h9.29l-4.16-11.68c-.13-.37-.28-1.09-.41-2.17Z"/>
      </g>
    </g>
    <g>
      <g id="B1" data-name="B">
        <path class="st1" d="M90.91,67.37c13.1,0,23.7,10.61,23.7,23.69s-10.61,23.68-23.7,23.68-23.69-10.61-23.69-23.68,10.61-23.69,23.69-23.69Z"/>
      </g>
      <g class="st3">
        <path class="st2" d="M101.12,97.38c0,2.63-.99,4.78-2.93,6.39-1.96,1.63-4.47,2.44-7.57,2.44h-9.91v-30.31h9.57c2.9,0,5.19.65,6.87,1.88,1.68,1.27,2.52,2.95,2.52,5.09,0,1.65-.5,3.1-1.5,4.35-1.01,1.28-2.32,2.15-3.96,2.67v.09c2.16.27,3.84,1.08,5.07,2.37,1.2,1.33,1.82,2.98,1.82,5.03h.02ZM94.35,83.84c0-1.2-.45-2.14-1.33-2.8-.91-.65-2.22-.97-3.98-.97h-3.28v8.38h3.23c1.69,0,3.02-.4,3.96-1.2.93-.8,1.4-1.92,1.4-3.41ZM95.78,97.24c0-1.45-.51-2.59-1.56-3.41-1.05-.81-2.6-1.21-4.67-1.21h-3.79v9.41h4.24c1.8,0,3.21-.44,4.24-1.31,1.04-.85,1.55-2.03,1.55-3.49h-.01Z"/>
      </g>
    </g>
    <g>
      <g id="Y1" data-name="Y">
        <path class="st1" d="M225.47,67.37c13.1,0,23.71,10.61,23.71,23.69s-10.6,23.68-23.71,23.68-23.69-10.6-23.69-23.68,10.61-23.69,23.69-23.69Z"/>
      </g>
      <g class="st3">
        <path class="st2" d="M227.87,95.22v10.99h-5v-10.86l-9.85-19.44h5.72l6.1,12.65c.21.41.34.78.44,1.12s.18.61.26.83h.04c.15-.64.37-1.27.7-1.9l6.32-12.69h5.32l-10.05,19.31h0Z"/>
      </g>
    </g>
    <g>
      <g id="X1" data-name="X">
        <path class="st1" d="M158.18,67.37c13.1,0,23.71,10.61,23.71,23.69s-10.6,23.68-23.71,23.68-23.68-10.61-23.68-23.68,10.6-23.69,23.68-23.69Z"/>
      </g>
      <g class="st3">
        <path class="st2" d="M165.3,106.2l-6.41-11.02c-.13-.29-.24-.53-.31-.76-.05-.26-.12-.5-.21-.76h-.09c-.12.27-.19.52-.27.77-.08.22-.19.46-.34.75l-6.52,11.02h-6.12l10.14-15.19-9.26-15.11h6.19l5.4,9.95c.52.89.86,1.64,1.05,2.27h.07c.31-.79.54-1.31.66-1.56.11-.24,2.21-3.8,6.27-10.66h5.67l-9.46,15.02,9.58,15.28h-6.04Z"/>
      </g>
    </g>
  </g>
</svg>