<?xml version="1.0" encoding="UTF-8"?>
<svg id="Layer_1" xmlns="http://www.w3.org/2000/svg" version="1.1" viewBox="0 0 67.41 33.21">
  <!-- Generator: Adobe Illustrator 29.7.1, SVG Export Plug-In . SVG Version: 2.1.1 Build 8)  -->
  <defs>
    <style>
      .st0 {
        fill: none;
      }

      .st1 {
        fill: #f5f5f5;
        stroke: #fff;
        stroke-miterlimit: 10;
        stroke-width: 1px;
      }

      .st2 {
        fill: #dd1d4b;
      }
    </style>
  </defs>
  <rect id="svgEditorBackground" class="st0" x=".01" y="0" width="67.38" height="33.19"/>
  <g id="Menu_Pressed">
    <path class="st1" d="M66.89,16.6c0,8.9-7.23,16.1-16.09,16.1s-16.09-7.2-16.09-16.1S41.9.51,50.8.51s16.09,7.2,16.09,16.1Z"/>
    <g>
      <rect class="st2" x="43.61" y="11.98" width="14.35" height="1.55"/>
      <rect class="st2" x="43.61" y="15.9" width="14.35" height="1.55"/>
      <rect class="st2" x="43.61" y="19.7" width="14.35" height="1.53"/>
    </g>
  </g>
  <g id="Switcher_PRessed">
    <path class="st1" d="M32.71,16.6c0,8.9-7.2,16.1-16.1,16.1S.51,25.5.51,16.6,7.74.51,16.61.51s16.1,7.2,16.1,16.1Z"/>
    <g>
      <polygon class="st2" points="14.1 16.5 11.07 16.5 11.07 12.72 16.54 12.72 16.54 14.04 18.33 14.04 18.33 10.98 9.45 10.98 9.45 18.37 14.1 18.37 14.1 16.5"/>
      <path class="st2" d="M14.85,14.66v7.58h8.96v-7.58h-8.96ZM22,20.45h-5.47v-3.94h5.47v3.94Z"/>
    </g>
  </g>
</svg>